<?xml version="1.0" encoding="utf-8"?>
<!-- Generator: Adobe Illustrator 14.0.0, SVG Export Plug-In . SVG Version: 6.00 Build 43363)  -->
<!DOCTYPE svg PUBLIC "-//W3C//DTD SVG 1.1//EN" "http://www.w3.org/Graphics/SVG/1.1/DTD/svg11.dtd">
<svg version="1.1" id="Layer_1" xmlns="http://www.w3.org/2000/svg" xmlns:xlink="http://www.w3.org/1999/xlink" x="0px" y="0px"
	 width="600px" height="600px" viewBox="0 0 600 600" enable-background="new 0 0 600 600" xml:space="preserve">
<ellipse fill="#E6A1BB" cx="300.159" cy="92.184" rx="10.714" ry="11.985"/>
<g>
	<path fill="#E77FFF" d="M426.225,187.245c0,62.273-50.482,155.959-112.756,155.959c-62.272,0-112.754-93.686-112.754-155.959
		S251.196,74.49,313.469,74.49C375.742,74.49,426.225,124.972,426.225,187.245z"/>
	<g>
		<ellipse cx="271.588" cy="192.184" rx="28.572" ry="41.837"/>
		<ellipse fill="#FFFFFF" cx="271.588" cy="170.409" rx="8.609" ry="12.418"/>
		<ellipse fill="#FFFFFF" cx="286.319" cy="184.53" rx="4.305" ry="7.653"/>
	</g>
	<g>
		<ellipse cx="355.815" cy="192.184" rx="28.571" ry="41.837"/>
		<ellipse fill="#FFFFFF" cx="355.816" cy="170.409" rx="8.609" ry="12.418"/>
		<ellipse fill="#FFFFFF" cx="370.547" cy="184.53" rx="4.305" ry="7.653"/>
	</g>
	<ellipse fill="#E6A1BB" cx="339.956" cy="112.59" rx="29.082" ry="15.307"/>
	<ellipse fill="#E6A3BB" cx="274.161" cy="116.033" rx="15.284" ry="11.864"/>
	<path fill="none" stroke="#E77FFF" stroke-width="20" d="M236.157,273.046c-13.071-17.396-31.794-30.603-53.1-26.786
		c-20.458,3.668-38.477,7.995-59.378,7.817c-27.761-0.236-62.178-6.117-69.583-37.471"/>
	<path fill="none" stroke="#E77FFF" stroke-width="20" d="M245.874,289.641c-19.164-10.307-41.701-14.436-59.439-2.031
		c-17.03,11.915-31.57,23.404-50.617,32.011c-25.297,11.436-59.006,20.539-78.884-4.813"/>
	<path fill="none" stroke="#E77FFF" stroke-width="20" d="M390.048,229.319c34.827-12.063,66.968-18.022,75.005-6.598
		c7.712,10.974,12.843,21.696,26.669,29.114c18.36,9.853,49.587,16.668,101.878-10.936"/>
	<path fill="none" stroke="#E77FFF" stroke-width="20" d="M396.448,274.154c21.744,0.855,43.254,8.747,52.231,28.443
		c8.618,18.913,15.307,36.195,27.34,53.286c15.982,22.699,40.394,47.663,70.396,35.923"/>
	<path fill="none" stroke="#E77FFF" stroke-width="20" d="M271.588,318.021c-21.32-4.351-44.092-1.814-57.506,15.174
		c-12.877,16.314-23.492,31.504-39.252,45.233c-20.932,18.236-50.59,36.662-76.928,18.109"/>
	<path fill="none" stroke="#E77FFF" stroke-width="20" d="M375.874,300c19.836,8.948,36.816,24.33,37.752,45.955
		c0.896,20.766,0.615,39.294,5.361,59.65c6.303,27.036,19.57,59.333,51.785,59.701"/>
	<path fill="none" stroke="#E77FFF" stroke-width="20" d="M283.739,326.308c-25.662,13.732-56.595,14.281-60.709,32.005
		c-3.16,13.604-1.99,28.106,4.955,41.22c5.476,10.338,62.01,58.613,22.302,63.775"/>
	<path fill="none" stroke="#E77FFF" stroke-width="20" d="M349,331c16.77,31.86,30.393,74.094,20.028,110.767
		c-2.32,8.213-6.511,15.239-7.974,23.484C359.167,475.892,360,487.114,360,498"/>
	<path d="M245.874,252.151c0,35.898,29.102,65,65,65c35.898,0,65-29.101,65-65c0-1.685-0.084-3.348-0.209-5h-129.58
		C245.958,248.803,245.874,250.466,245.874,252.151z"/>
	<path fill="#FFFFFF" d="M300.159,259.151c6.122,0,11.084-5.373,11.084-12h-22.168C289.075,253.778,294.037,259.151,300.159,259.151
		z"/>
	<path fill="#FFFFFF" d="M321.958,259.151c6.121,0,11.084-5.373,11.084-12h-22.169C310.873,253.778,315.835,259.151,321.958,259.151
		z"/>
	<path fill="#DF1000" d="M310.874,317.15c12.271,0,23.127-2.873,29.792-7.282c-1.863-8.377-14.485-14.857-29.792-14.857
		c-15.306,0-27.929,6.48-29.792,14.857C287.747,314.277,298.604,317.15,310.874,317.15z"/>
</g>
</svg>
